<svg width="425" height="425" viewBox="0 0 425 425" fill="none" xmlns="http://www.w3.org/2000/svg">
<rect width="425" height="425" fill="#0C102E"/>
<path d="M170.415 246.6C170.415 247.24 170.191 247.816 169.743 248.328C169.295 248.776 168.719 249 168.015 249C167.311 249 166.735 248.776 166.287 248.328C165.839 247.816 165.615 247.24 165.615 246.6V180.36C165.615 179.72 165.839 179.176 166.287 178.728C166.799 178.216 167.407 177.96 168.111 177.96C168.815 177.96 169.359 178.216 169.743 178.728C170.191 179.176 170.415 179.72 170.415 180.36V246.6ZM221.392 199.272C222.16 199.272 222.736 199.528 223.12 200.04C223.568 200.488 223.792 201.064 223.792 201.768V244.296C223.792 249.352 222.8 253.64 220.816 257.16C218.832 260.744 216.112 263.464 212.656 265.32C209.2 267.24 205.296 268.2 200.944 268.2C198.128 268.2 195.536 267.848 193.168 267.144C190.864 266.504 188.976 265.704 187.504 264.744C186.864 264.36 186.384 263.88 186.064 263.304C185.744 262.792 185.712 262.216 185.968 261.576C186.288 260.936 186.736 260.488 187.312 260.232C187.888 259.976 188.464 260.008 189.04 260.328C190.128 260.968 191.728 261.704 193.84 262.536C196.016 263.432 198.448 263.88 201.136 263.88C204.72 263.88 207.856 263.048 210.544 261.384C213.232 259.784 215.312 257.512 216.784 254.568C218.32 251.688 219.088 248.264 219.088 244.296V237.288L219.472 239.688C218.576 241.672 217.2 243.432 215.344 244.968C213.552 246.504 211.504 247.72 209.2 248.616C206.96 249.512 204.624 249.96 202.192 249.96C198.288 249.96 195.056 249.192 192.496 247.656C190 246.056 188.144 243.88 186.928 241.128C185.712 238.376 185.104 235.144 185.104 231.432V201.768C185.104 201.064 185.328 200.488 185.776 200.04C186.224 199.528 186.8 199.272 187.504 199.272C188.208 199.272 188.784 199.528 189.232 200.04C189.68 200.488 189.904 201.064 189.904 201.768V231.048C189.904 235.528 190.896 239.048 192.88 241.608C194.864 244.168 198.16 245.448 202.768 245.448C205.584 245.448 208.208 244.776 210.64 243.432C213.136 242.024 215.152 240.232 216.688 238.056C218.224 235.816 218.992 233.48 218.992 231.048V201.768C218.992 201.064 219.216 200.488 219.664 200.04C220.112 199.528 220.688 199.272 221.392 199.272ZM262.137 200.04C266.489 200.04 270.329 201.128 273.657 203.304C277.049 205.416 279.705 208.328 281.625 212.04C283.609 215.752 284.601 220.008 284.601 224.808C284.601 229.544 283.609 233.8 281.625 237.576C279.705 241.288 277.049 244.232 273.657 246.408C270.265 248.52 266.457 249.576 262.233 249.576C260.057 249.576 257.977 249.288 255.993 248.712C254.009 248.072 252.185 247.176 250.521 246.024C248.857 244.872 247.353 243.496 246.009 241.896C244.729 240.232 243.641 238.44 242.745 236.52L244.185 235.176V265.8C244.185 266.44 243.961 266.984 243.513 267.432C243.065 267.944 242.489 268.2 241.785 268.2C241.145 268.2 240.569 267.944 240.057 267.432C239.609 266.984 239.385 266.44 239.385 265.8V202.536C239.385 201.896 239.609 201.352 240.057 200.904C240.505 200.392 241.081 200.136 241.785 200.136C242.489 200.136 243.065 200.392 243.513 200.904C243.961 201.352 244.185 201.896 244.185 202.536V213.864L242.841 213.192C243.673 211.016 244.729 209.096 246.009 207.432C247.289 205.768 248.761 204.392 250.425 203.304C252.153 202.216 254.009 201.416 255.993 200.904C257.977 200.328 260.025 200.04 262.137 200.04ZM261.849 204.552C258.265 204.552 255.129 205.416 252.441 207.144C249.753 208.872 247.641 211.272 246.105 214.344C244.569 217.352 243.801 220.84 243.801 224.808C243.801 228.712 244.569 232.2 246.105 235.272C247.641 238.344 249.753 240.744 252.441 242.472C255.129 244.2 258.265 245.064 261.849 245.064C265.305 245.064 268.377 244.2 271.065 242.472C273.817 240.744 275.961 238.344 277.497 235.272C279.097 232.2 279.897 228.712 279.897 224.808C279.897 220.904 279.097 217.416 277.497 214.344C275.961 211.272 273.817 208.872 271.065 207.144C268.377 205.416 265.305 204.552 261.849 204.552ZM333.613 200.616C334.317 200.616 334.893 200.872 335.341 201.384C335.789 201.832 336.013 202.408 336.013 203.112V230.568C336.013 236.84 334.253 241.576 330.733 244.776C327.213 247.976 322.509 249.576 316.621 249.576C310.733 249.576 306.029 247.976 302.509 244.776C298.989 241.576 297.229 236.84 297.229 230.568V203.112C297.229 202.408 297.453 201.832 297.901 201.384C298.413 200.872 298.989 200.616 299.629 200.616C300.333 200.616 300.909 200.872 301.357 201.384C301.805 201.832 302.029 202.408 302.029 203.112V230.568C302.029 235.304 303.309 238.92 305.869 241.416C308.493 243.848 312.077 245.064 316.621 245.064C321.165 245.064 324.717 243.848 327.277 241.416C329.901 238.92 331.213 235.304 331.213 230.568V203.112C331.213 202.408 331.437 201.832 331.885 201.384C332.333 200.872 332.909 200.616 333.613 200.616ZM348.82 241.32C348.372 240.488 348.148 239.784 348.148 239.208C348.212 238.632 348.532 238.12 349.108 237.672C349.556 237.352 350.068 237.224 350.644 237.288C351.284 237.288 351.86 237.544 352.372 238.056C354.036 240.36 356.116 242.216 358.612 243.624C361.172 245.032 364.18 245.736 367.636 245.736C369.62 245.736 371.54 245.416 373.396 244.776C375.252 244.136 376.756 243.176 377.908 241.896C379.124 240.552 379.732 238.856 379.732 236.808C379.732 234.76 379.124 233.128 377.908 231.912C376.756 230.632 375.22 229.608 373.3 228.84C371.444 228.072 369.492 227.432 367.444 226.92C365.204 226.344 363.06 225.704 361.012 225C359.028 224.296 357.236 223.4 355.636 222.312C354.1 221.16 352.884 219.784 351.988 218.184C351.092 216.584 350.644 214.696 350.644 212.52C350.644 209.96 351.316 207.688 352.66 205.704C354.068 203.656 356.02 202.056 358.516 200.904C361.012 199.752 363.86 199.176 367.06 199.176C368.66 199.176 370.324 199.4 372.052 199.848C373.844 200.232 375.604 200.904 377.332 201.864C379.124 202.76 380.756 204.04 382.228 205.704C382.804 206.152 383.06 206.696 382.996 207.336C382.996 207.976 382.708 208.584 382.132 209.16C381.684 209.48 381.172 209.64 380.596 209.64C380.084 209.576 379.636 209.352 379.252 208.968C377.652 207.112 375.764 205.768 373.588 204.936C371.476 204.04 369.172 203.592 366.676 203.592C364.692 203.592 362.836 203.912 361.108 204.552C359.38 205.192 357.94 206.152 356.788 207.432C355.7 208.712 355.156 210.376 355.156 212.424C355.284 214.344 355.956 215.944 357.172 217.224C358.388 218.44 359.988 219.464 361.972 220.296C364.02 221.064 366.324 221.768 368.884 222.408C370.932 222.92 372.884 223.528 374.74 224.232C376.596 224.872 378.228 225.736 379.636 226.824C381.044 227.848 382.164 229.16 382.996 230.76C383.828 232.296 384.244 234.248 384.244 236.616C384.244 239.368 383.476 241.736 381.94 243.72C380.468 245.704 378.452 247.24 375.892 248.328C373.332 249.416 370.42 249.96 367.156 249.96C363.764 249.96 360.468 249.288 357.268 247.944C354.132 246.6 351.316 244.392 348.82 241.32Z" fill="white"/>
<path d="M67.592 195C72.072 195 76.072 196.152 79.592 198.456C83.176 200.696 85.992 203.8 88.04 207.768C90.152 211.736 91.208 216.344 91.208 221.592C91.208 226.84 90.152 231.48 88.04 235.512C85.992 239.48 83.208 242.616 79.688 244.92C76.232 247.16 72.328 248.28 67.976 248.28C65.416 248.28 63.016 247.864 60.776 247.032C58.536 246.2 56.552 245.144 54.824 243.864C53.16 242.584 51.848 241.304 50.888 240.024C49.992 238.68 49.544 237.56 49.544 236.664L52.52 235.416V260.664C52.52 262.328 51.976 263.704 50.888 264.792C49.8 265.944 48.424 266.52 46.76 266.52C45.096 266.52 43.72 265.976 42.632 264.888C41.544 263.8 41 262.392 41 260.664V201.816C41 200.152 41.544 198.776 42.632 197.688C43.72 196.536 45.6898 195 47.3538 195L49.6809 198.664L52.232 202.68L56.696 199.416L67.592 195H47.3538L52.232 202.68L56.696 199.416L67.592 195ZM66.152 205.56C63.336 205.56 60.872 206.264 58.76 207.672C56.648 209.08 54.984 211 53.768 213.432C52.616 215.8 52.04 218.52 52.04 221.592C52.04 224.6 52.616 227.352 53.768 229.848C54.984 232.28 56.648 234.2 58.76 235.608C60.872 237.016 63.336 237.72 66.152 237.72C68.968 237.72 71.4 237.016 73.448 235.608C75.56 234.2 77.192 232.28 78.344 229.848C79.56 227.352 80.168 224.6 80.168 221.592C80.168 218.52 79.56 215.8 78.344 213.432C77.192 211 75.56 209.08 73.448 207.672C71.4 206.264 68.968 205.56 66.152 205.56Z" fill="white"/>
<path d="M151.105 221.688C151.105 226.936 149.921 231.576 147.553 235.608C145.249 239.576 142.113 242.68 138.145 244.92C134.241 247.16 129.857 248.28 124.993 248.28C120.129 248.28 115.713 247.16 111.745 244.92C107.841 242.68 104.705 239.576 102.337 235.608C100.033 231.576 98.8812 226.936 98.8812 221.688C98.8812 216.44 100.033 211.832 102.337 207.864C104.705 203.832 107.841 200.696 111.745 198.456C115.713 196.152 120.129 195 124.993 195C129.857 195 134.241 196.152 138.145 198.456C142.113 200.696 145.249 203.832 147.553 207.864C149.921 211.832 151.105 216.44 151.105 221.688ZM139.585 221.688C139.585 218.424 138.913 215.608 137.569 213.24C136.289 210.808 134.529 208.92 132.289 207.576C130.113 206.232 127.681 205.56 124.993 205.56C122.305 205.56 119.841 206.232 117.601 207.576C115.425 208.92 113.665 210.808 112.321 213.24C111.041 215.608 110.401 218.424 110.401 221.688C110.401 224.888 111.041 227.704 112.321 230.136C113.665 232.504 115.425 234.36 117.601 235.704C119.841 237.048 122.305 237.72 124.993 237.72C127.681 237.72 130.113 237.048 132.289 235.704C134.529 234.36 136.289 232.504 137.569 230.136C138.913 227.704 139.585 224.888 139.585 221.688Z" fill="white"/>
<circle cx="66.6309" cy="220.5" r="17.5" fill="white"/>
<circle cx="123.631" cy="220.5" r="17.5" fill="white"/>
<path fill-rule="evenodd" clip-rule="evenodd" d="M95 203.986C100.726 193.282 112.012 186 125 186C128.201 186 131.298 186.442 134.234 187.269C139.752 178.227 143 167.145 143 155.174C143 124.702 121.957 100 96 100C70.0426 100 49 124.702 49 155.174C49 166.817 52.0724 177.619 57.3174 186.521H59.0378C60.9736 186.179 62.9659 186 65 186C77.9875 186 89.2743 193.282 95 203.986Z" fill="#FFBA08"/>
<circle cx="76.5" cy="212.5" r="7.5" fill="#0C102E"/>
<circle cx="135.5" cy="211.5" r="7.5" fill="#0C102E"/>
</svg>
