<svg width="426" height="425" viewBox="0 0 426 425" fill="none" xmlns="http://www.w3.org/2000/svg">
<rect width="425" height="425" fill="#03071E"/>
<path d="M166.974 216H182.334V161.76L179.454 152.16H183.294L203.742 216H233.982V148.32H218.622V202.56L221.502 212.16H217.662L197.214 148.32H166.974V216ZM218.702 216H234.062V194.88L264.782 192.96V179.328L234.062 181.248V161.76H266.99V148.32H218.702V216Z" fill="#FFBA08"/>
<path d="M163.974 213H179.334V158.76L176.454 149.16H180.294L200.742 213H230.982V145.32H215.622V199.56L218.502 209.16H214.662L194.214 145.32H163.974V213ZM215.702 213H231.062V191.88L261.782 189.96V176.328L231.062 178.248V158.76H263.99V145.32H215.702V213Z" fill="white"/>
<path d="M234.084 213.16H202.838L203.659 216L204.659 220L215.25 220V246H222.93V220H234L234.084 213.16Z" fill="#FFBA08"/>
<path d="M234.974 246H242.654V228.192L254.99 228.48V221.76L239.102 221.376C236.462 221.328 234.974 222.768 234.974 225.408V246ZM256.467 239.376C256.467 241.872 257.763 246.48 265.299 246.48C272.067 246.48 274.419 243.072 275.331 239.04H277.251L276.051 241.92V242.4C276.051 244.704 277.347 246 279.651 246H284.979V239.28H281.475V232.464C281.475 224.496 275.619 221.28 268.947 221.28C262.179 221.28 256.947 224.88 256.947 231.024H264.147C264.147 228.816 265.875 227.52 268.947 227.52C272.259 227.52 273.795 228.72 273.795 230.688L266.163 231.744C258.963 232.752 256.467 235.2 256.467 239.376ZM264.147 237.936C264.147 236.544 265.299 236.208 267.603 235.872L273.795 235.008C273.795 237.984 271.011 239.76 266.787 239.76C265.491 239.76 264.147 239.328 264.147 237.936ZM314.644 246V210.72H306.964V223.248L308.404 227.568H306.484C305.236 224.352 302.932 221.28 296.932 221.28C289.924 221.28 286.42 226.992 286.42 233.856C286.42 240.72 289.924 246.48 296.932 246.48C302.932 246.48 305.236 243.408 306.484 240.192H308.404L306.964 244.512V246H314.644ZM306.964 233.856C306.964 237.936 304.66 239.76 300.532 239.76C296.404 239.76 294.1 237.936 294.1 233.856C294.1 229.776 296.404 228 300.532 228C304.66 228 306.964 229.776 306.964 233.856ZM317.545 233.568C317.545 240.432 321.817 246.48 331.129 246.48C339.529 246.48 343.513 240.96 343.993 237.456H336.313C335.833 239.28 333.817 240.24 331.129 240.24C326.761 240.24 324.745 238.272 324.745 235.488H343.129V233.088C343.129 225.744 337.849 221.28 330.313 221.28C322.777 221.28 317.545 225.888 317.545 233.568ZM324.745 231.168C324.745 229.344 326.041 227.52 330.313 227.52C334.585 227.52 335.929 229.344 335.929 231.168H324.745Z" fill="#FFBA08"/>
</svg>
