<svg id="svg" version="1.1" width="512" height="512" xmlns="http://www.w3.org/2000/svg"><path d="M237.113 65.486 C 227.719 67.610,221.353 69.830,213.500 73.721 C 189.058 85.831,171.610 106.689,163.316 133.712 C 160.852 141.740,160.614 143.970,160.559 159.500 C 160.513 172.872,160.881 177.879,162.284 182.964 C 166.655 198.799,174.681 213.867,184.651 224.957 C 194.979 236.444,213.037 247.558,229.718 252.694 C 237.841 255.196,239.813 255.399,256.000 255.399 C 272.187 255.399,274.159 255.196,282.282 252.694 C 298.963 247.558,317.021 236.444,327.349 224.957 C 337.319 213.867,345.345 198.799,349.716 182.964 C 351.119 177.879,351.487 172.872,351.441 159.500 C 351.386 143.970,351.148 141.740,348.684 133.712 C 338.586 100.810,314.919 77.165,282.288 67.377 C 274.872 65.153,271.158 64.687,258.500 64.392 C 247.908 64.145,241.623 64.466,237.113 65.486 M273.590 87.986 C 287.069 91.371,297.158 97.173,307.520 107.500 C 322.415 122.345,328.727 136.182,329.738 156.203 C 330.892 179.052,323.180 198.272,306.721 213.565 C 297.563 222.075,290.665 226.291,279.261 230.347 C 270.961 233.299,269.737 233.462,256.000 233.428 C 243.004 233.397,240.670 233.116,233.500 230.722 C 222.835 227.161,214.273 221.960,205.261 213.565 C 188.809 198.241,181.109 179.037,182.262 156.203 C 183.273 136.182,189.585 122.345,204.480 107.500 C 214.718 97.296,224.831 91.425,238.000 88.039 C 248.292 85.392,263.172 85.370,273.590 87.986 M245.699 96.634 C 245.315 97.019,245.000 99.041,245.000 101.128 C 245.000 104.752,244.809 104.973,240.750 106.032 C 231.000 108.577,228.965 109.431,224.363 112.908 C 208.833 124.646,209.849 150.809,226.208 160.376 C 228.569 161.757,239.577 166.027,250.671 169.866 C 261.765 173.705,271.768 177.340,272.898 177.946 C 278.053 180.704,277.964 186.832,272.723 190.027 C 269.970 191.706,267.751 191.982,257.500 191.920 C 242.629 191.831,239.295 190.771,236.156 185.138 L 233.813 180.932 223.656 181.216 C 213.569 181.498,213.498 181.517,213.200 184.079 C 212.718 188.225,216.943 197.982,221.238 202.642 C 225.355 207.109,235.724 213.000,239.469 213.000 C 242.934 213.000,244.876 215.203,245.199 219.500 L 245.500 223.500 256.000 223.500 L 266.500 223.500 266.806 219.273 C 267.099 215.234,267.299 214.997,271.306 213.923 C 285.213 210.199,291.150 206.200,295.402 197.693 C 296.998 194.500,298.515 189.699,298.772 187.025 C 299.771 176.626,294.591 165.234,286.544 160.130 C 284.079 158.567,272.486 154.022,260.781 150.031 C 239.128 142.647,235.000 140.400,235.000 136.000 C 235.000 134.961,236.085 132.849,237.411 131.306 C 239.778 128.551,240.048 128.494,252.263 128.172 C 268.648 127.739,272.278 128.723,275.800 134.554 L 278.485 139.000 288.274 139.000 C 296.019 139.000,298.182 138.689,298.634 137.512 C 299.621 134.938,296.903 126.079,293.637 121.227 C 288.566 113.693,282.853 110.021,270.500 106.353 C 267.865 105.571,267.439 104.917,267.000 100.981 L 266.500 96.500 256.449 96.217 C 250.922 96.062,246.084 96.249,245.699 96.634 M408.500 291.821 C 405.750 292.851,389.100 301.579,371.500 311.218 C 353.900 320.857,336.756 330.123,333.403 331.809 L 327.306 334.874 321.999 329.813 C 312.306 320.568,312.377 320.582,274.000 319.935 C 235.817 319.292,237.058 319.519,217.294 309.581 C 196.100 298.923,189.232 297.733,151.500 298.180 L 124.500 298.500 101.000 307.998 C 74.292 318.792,69.480 321.557,66.250 327.962 C 64.011 332.402,64.000 332.649,64.022 379.462 C 64.046 431.984,63.979 431.433,71.108 437.443 C 80.302 445.195,84.951 444.956,108.804 435.500 C 119.210 431.375,129.145 428.000,130.881 428.000 C 132.617 428.000,160.917 431.885,193.769 436.634 C 262.082 446.508,267.558 446.870,282.500 442.504 C 287.450 441.058,295.100 437.806,299.500 435.279 C 313.078 427.479,437.328 343.985,440.325 340.647 C 447.421 332.743,449.953 320.397,446.569 310.209 C 441.640 295.368,423.032 286.380,408.500 291.821 M423.750 315.637 C 426.355 318.502,426.624 321.664,424.518 324.670 C 422.853 327.048,294.103 413.395,286.427 417.282 C 278.886 421.101,271.350 422.997,263.568 423.033 C 259.681 423.051,227.250 418.921,191.500 413.856 L 126.500 404.646 109.500 411.359 C 100.150 415.051,91.150 418.708,89.500 419.485 L 86.500 420.899 86.228 380.199 C 85.961 340.317,85.996 339.466,87.989 337.830 C 89.108 336.912,98.681 332.650,109.262 328.360 L 128.500 320.560 152.688 320.216 C 184.967 319.757,188.626 320.406,209.550 330.301 C 232.866 341.328,232.683 341.293,270.730 341.946 L 302.959 342.500 305.707 345.250 C 309.542 349.088,309.541 354.913,305.706 358.750 L 302.957 361.500 258.228 362.035 C 233.628 362.330,213.372 362.667,213.215 362.785 C 213.058 362.903,213.058 367.613,213.215 373.250 L 213.500 383.500 258.961 383.760 C 309.919 384.052,309.966 384.047,318.830 377.041 C 322.076 374.474,324.801 371.004,327.292 366.265 C 329.312 362.420,331.536 358.808,332.233 358.239 C 333.929 356.854,408.410 316.200,413.500 313.881 C 418.142 311.766,420.617 312.190,423.750 315.637 " stroke="none" fill="#03071E" fill-rule="evenodd"/></svg>