<svg id="svg" version="1.1" width="512" height="512" xmlns="http://www.w3.org/2000/svg"><path d="M235.324 9.486 C 234.157 10.303,230.595 15.478,227.409 20.986 C 222.993 28.621,221.121 31.000,219.530 31.000 C 218.383 31.000,214.157 29.425,210.140 27.500 C 201.435 23.328,197.822 23.087,194.455 26.455 C 191.574 29.335,191.337 32.943,193.500 41.000 C 196.635 52.679,197.870 51.370,173.750 61.933 C 162.063 67.051,150.588 72.278,148.250 73.549 L 144.000 75.859 144.000 72.384 C 144.000 70.028,143.210 68.119,141.545 66.455 L 139.091 64.000 103.989 64.000 L 68.887 64.000 65.944 67.223 C 64.325 68.995,63.000 70.795,63.000 71.223 C 63.000 71.650,51.165 72.000,36.700 72.000 C 17.578 72.000,10.072 72.328,9.200 73.200 C 8.213 74.187,7.380 86.480,8.250 87.210 C 8.387 87.325,20.875 87.662,36.000 87.960 L 63.500 88.500 63.500 136.000 L 63.500 183.500 36.000 184.040 C 20.875 184.338,8.387 184.675,8.250 184.790 C 8.113 184.906,8.000 188.102,8.000 191.893 C 8.000 197.256,8.351 198.921,9.582 199.393 C 10.452 199.727,22.815 200.000,37.056 200.000 L 62.949 200.000 64.485 202.970 C 65.329 204.604,66.886 206.404,67.945 206.970 C 69.158 207.620,82.654 208.000,104.480 208.000 L 139.091 208.000 141.545 205.545 C 143.135 203.956,144.012 201.929,144.033 199.795 L 144.067 196.500 145.929 198.732 C 147.746 200.910,147.744 201.173,145.806 209.732 C 144.162 216.996,143.905 220.901,144.308 232.500 C 144.873 248.772,146.586 255.725,153.423 269.500 C 166.101 295.041,188.828 312.488,217.315 318.550 C 226.461 320.496,253.539 320.496,262.685 318.550 C 296.344 311.388,321.456 288.557,332.582 255.000 C 335.203 247.094,335.404 245.347,335.450 230.000 C 335.493 215.669,335.198 212.449,333.199 205.500 C 330.055 194.574,324.160 182.701,317.535 173.957 C 312.275 167.014,312.000 166.358,312.000 160.761 C 312.000 156.944,311.241 153.106,309.843 149.856 L 307.686 144.842 309.853 138.671 C 312.533 131.041,312.576 123.867,309.978 118.141 C 307.493 112.664,307.506 111.370,310.108 105.489 C 314.811 94.857,310.632 81.757,300.550 75.526 C 296.105 72.779,294.840 72.493,286.839 72.430 C 281.992 72.391,277.777 72.110,277.473 71.806 C 277.169 71.502,279.413 61.311,282.460 49.160 C 285.507 37.009,288.000 25.681,288.000 23.988 C 288.000 20.159,284.093 16.000,280.496 16.000 C 277.436 16.000,273.677 17.840,265.927 23.130 C 262.809 25.259,259.629 27.000,258.860 27.000 C 258.092 27.000,254.997 23.347,251.983 18.882 C 248.968 14.418,245.614 10.143,244.529 9.382 C 241.954 7.579,237.983 7.623,235.324 9.486 M248.841 43.828 C 254.047 49.467,258.367 49.412,264.898 43.625 L 267.296 41.500 266.607 44.000 C 266.228 45.375,264.273 52.895,262.262 60.710 C 258.985 73.449,258.341 75.023,256.053 75.909 C 253.070 77.063,228.326 81.000,224.053 81.000 C 220.689 81.000,221.228 82.246,216.543 63.620 C 214.623 55.987,212.756 48.787,212.393 47.620 C 211.776 45.634,211.853 45.601,213.617 47.095 C 214.653 47.972,217.484 49.460,219.909 50.400 C 223.384 51.749,224.880 51.878,226.971 51.012 C 229.795 49.842,235.856 41.238,238.730 34.320 L 240.467 30.140 242.728 34.898 C 243.972 37.515,246.723 41.533,248.841 43.828 M202.288 76.110 C 203.159 79.483,203.394 82.331,202.877 83.255 C 202.313 84.262,199.088 85.226,193.496 86.058 C 188.809 86.755,184.478 87.924,183.871 88.655 C 183.168 89.502,183.012 91.943,183.442 95.381 C 184.681 105.301,180.078 105.194,235.553 96.585 C 262.474 92.407,285.767 88.992,287.316 88.995 C 293.211 89.006,296.894 93.519,295.023 98.439 C 293.478 102.504,290.363 103.465,277.000 104.000 L 264.500 104.500 264.500 112.000 L 264.500 119.500 277.000 120.008 C 292.737 120.647,295.000 121.785,295.000 129.059 C 295.000 134.065,291.482 135.425,277.048 136.000 L 264.500 136.500 264.500 144.000 L 264.500 151.500 277.000 152.008 C 292.737 152.647,295.000 153.785,295.000 161.059 C 295.000 166.065,291.482 167.425,277.048 168.000 L 264.500 168.500 264.500 175.988 L 264.500 183.475 269.128 184.137 C 275.150 184.999,277.837 186.504,278.571 189.427 C 279.686 193.869,278.652 196.424,275.000 198.248 C 271.834 199.830,267.473 199.997,229.301 199.998 L 187.102 200.000 165.801 189.250 L 144.500 178.500 144.222 138.000 C 144.069 115.725,144.176 96.544,144.459 95.376 C 144.996 93.165,147.989 91.687,183.492 76.103 C 192.287 72.242,199.789 69.402,200.162 69.792 C 200.534 70.181,201.491 73.024,202.288 76.110 M127.508 82.250 C 127.808 83.487,127.929 108.575,127.777 138.000 L 127.500 191.500 106.000 191.783 C 94.175 191.938,83.487 191.817,82.250 191.514 L 80.000 190.962 80.000 136.148 C 80.000 106.000,80.300 81.033,80.667 80.667 C 81.033 80.300,91.600 80.000,104.148 80.000 L 126.962 80.000 127.508 82.250 M305.347 185.388 C 317.525 201.354,322.493 227.712,317.058 247.522 C 309.786 274.027,290.171 293.602,263.291 301.180 C 251.935 304.381,228.019 304.360,216.500 301.139 C 183.250 291.840,160.886 263.336,160.730 230.060 C 160.685 220.470,162.359 209.514,164.026 208.484 C 164.516 208.181,168.198 209.636,172.209 211.717 L 179.500 215.500 197.388 216.000 L 215.276 216.500 216.644 221.854 C 217.397 224.799,218.978 228.565,220.159 230.223 C 222.936 234.123,230.376 238.820,234.927 239.545 C 241.851 240.650,243.069 241.069,245.025 243.025 C 249.351 247.351,246.109 255.000,239.949 255.000 C 237.731 255.000,236.010 254.030,233.646 251.450 C 230.447 247.958,230.279 247.905,223.447 248.200 C 217.039 248.477,216.474 248.681,216.170 250.827 C 215.557 255.153,220.738 263.743,226.549 268.036 L 231.916 272.001 232.208 279.750 L 232.500 287.500 240.000 287.500 L 247.500 287.500 247.792 279.750 L 248.084 272.001 253.425 268.055 C 263.694 260.469,266.877 248.166,261.410 237.195 C 258.221 230.797,253.257 226.567,247.144 225.041 C 244.590 224.404,240.829 223.445,238.786 222.912 C 235.478 222.047,232.000 218.904,232.000 216.777 C 232.000 216.350,242.262 216.000,254.804 216.000 C 277.335 216.000,277.669 215.969,282.805 213.410 C 292.205 208.726,296.000 201.878,296.000 189.602 C 296.000 183.603,296.225 182.852,298.250 182.099 C 301.224 180.994,302.417 181.547,305.347 185.388 M148.764 344.996 C 140.896 347.365,132.171 355.957,129.516 363.952 C 127.006 371.510,127.778 382.775,131.267 389.500 C 132.747 392.352,143.396 405.023,156.062 419.000 C 168.273 432.475,180.514 446.078,183.264 449.230 C 192.372 459.665,205.203 467.684,217.270 470.483 C 221.411 471.443,250.479 473.300,302.832 475.947 C 346.442 478.153,382.545 480.219,383.061 480.538 C 383.578 480.857,384.000 485.162,384.000 490.104 C 384.000 498.312,384.213 499.304,386.455 501.545 L 388.909 504.000 423.004 504.000 C 459.898 504.000,461.145 503.835,463.954 498.585 L 465.338 496.000 483.469 496.000 C 496.238 496.000,501.955 495.645,502.800 494.800 C 504.684 492.916,504.373 481.357,502.418 480.607 C 501.548 480.273,492.782 480.000,482.937 480.000 C 465.204 480.000,465.033 479.979,464.492 477.750 C 464.191 476.512,464.070 455.025,464.223 430.000 L 464.500 384.500 484.000 383.945 C 494.725 383.640,503.613 383.303,503.750 383.195 C 503.887 383.088,504.000 379.898,504.000 376.107 C 504.000 370.744,503.649 369.079,502.418 368.607 C 501.548 368.273,492.785 368.000,482.944 368.000 L 465.051 368.000 463.515 365.030 C 462.671 363.396,461.114 361.596,460.055 361.030 C 458.842 360.380,445.346 360.000,423.520 360.000 L 388.909 360.000 386.336 362.573 C 383.880 365.030,383.782 365.551,384.187 374.018 C 384.603 382.722,384.579 382.836,382.908 380.090 C 380.822 376.658,368.726 368.485,361.115 365.365 C 350.416 360.977,342.327 359.781,326.286 360.214 C 308.770 360.687,305.453 361.810,296.065 370.440 L 290.017 376.000 262.259 376.022 C 231.836 376.046,230.570 376.255,223.200 382.476 C 220.718 384.572,219.437 385.043,218.029 384.381 C 216.999 383.896,207.961 376.525,197.944 368.000 C 187.926 359.475,178.554 351.499,177.115 350.276 C 170.943 345.027,157.175 342.463,148.764 344.996 M164.161 362.401 C 165.624 363.164,177.788 373.051,191.191 384.371 C 212.689 402.527,215.878 405.601,218.258 410.454 C 221.200 416.453,226.830 421.294,232.911 423.056 C 235.146 423.704,247.627 423.984,266.000 423.798 L 295.500 423.500 295.500 416.000 L 295.500 408.500 267.000 408.000 C 236.705 407.469,234.571 407.124,233.429 402.573 C 232.314 398.131,233.348 395.576,237.000 393.752 C 240.093 392.206,243.910 392.003,269.827 392.002 L 299.154 392.000 301.827 389.184 C 303.297 387.635,305.997 384.713,307.826 382.690 C 312.681 377.320,319.558 375.546,332.154 376.413 C 337.518 376.783,344.479 377.755,347.622 378.574 C 361.360 382.152,374.611 392.722,380.750 405.000 L 384.001 411.500 383.985 436.000 C 383.976 449.475,383.599 461.083,383.147 461.796 C 381.961 463.666,226.946 455.870,219.371 453.559 C 212.484 451.458,206.469 447.969,200.808 442.791 C 193.718 436.308,148.099 385.092,146.280 381.574 C 142.978 375.190,145.157 366.231,150.873 362.684 C 154.105 360.678,160.594 360.540,164.161 362.401 M446.418 376.607 C 447.834 377.150,448.000 382.913,448.000 431.407 C 448.000 472.224,447.704 485.896,446.800 486.800 C 445.939 487.661,439.335 488.000,423.407 488.000 C 404.092 488.000,401.135 487.795,400.607 486.418 C 399.776 484.252,399.834 377.500,400.667 376.667 C 401.500 375.834,444.257 375.778,446.418 376.607 " stroke="none" fill="undefined" fill-rule="evenodd"/></svg>